HIERARCHY
ROOT Hips
{
	OFFSET -14.64140 90.27770 -84.91600
	CHANNELS 6 Xposition Yposition Zposition Zrotation Xrotation Yrotation
	JOINT Spine
	{
		OFFSET 0.00000 13.20850 -1.60436
		CHANNELS 3 Zrotation Xrotation Yrotation
		JOINT Spine1
		{
			OFFSET 0.00000 8.61716 0.00000
			CHANNELS 3 Zrotation Xrotation Yrotation
			JOINT Spine2
			{
				OFFSET 0.00000 8.61717 0.00000
				CHANNELS 3 Zrotation Xrotation Yrotation
				JOINT Spine3
				{
					OFFSET 0.00000 8.61717 0.00000
					CHANNELS 3 Zrotation Xrotation Yrotation
					JOINT Neck
					{
						OFFSET 0.00000 11.07920 1.10792
						CHANNELS 3 Zrotation Xrotation Yrotation
						JOINT Neck1
						{
							OFFSET 0.00000 7.08032 0.00000
							CHANNELS 3 Zrotation Xrotation Yrotation
							JOINT Head
							{
								OFFSET 0.00000 7.08031 0.00000
								CHANNELS 3 Zrotation Xrotation Yrotation
								End site
								{
									OFFSET 0.00000 0.00000 0.00000
								}
							}
						}
					}
					JOINT RightShoulder
					{
						OFFSET -0.01000 7.91373 5.19711
						CHANNELS 3 Zrotation Xrotation Yrotation
						JOINT RightArm
						{
							OFFSET -18.41580 0.00000 0.00000
							CHANNELS 3 Zrotation Xrotation Yrotation
							JOINT RightForeArm
							{
								OFFSET -29.11090 0.00000 0.00000
								CHANNELS 3 Zrotation Xrotation Yrotation
								JOINT RightHand
								{
									OFFSET -24.65040 0.00000 0.00000
									CHANNELS 3 Zrotation Xrotation Yrotation
									JOINT RightHandThumb1
									{
										OFFSET -5.35114 -0.85590 3.97906
										CHANNELS 3 Zrotation Xrotation Yrotation
										JOINT RightHandThumb2
										{
											OFFSET -4.52789 0.00000 0.00000
											CHANNELS 3 Zrotation Xrotation Yrotation
											JOINT RightHandThumb3
											{
												OFFSET -2.46976 0.00000 0.00000
												CHANNELS 3 Zrotation Xrotation Yrotation
												End site
												{
													OFFSET 0.00000 0.00000 0.00000
												}
											}
										}
									}
									JOINT RightHandIndex1
									{
										OFFSET -14.26970 0.00000 2.88139
										CHANNELS 3 Zrotation Xrotation Yrotation
										JOINT RightHandIndex2
										{
											OFFSET -5.48836 0.00000 0.00000
											CHANNELS 3 Zrotation Xrotation Yrotation
											JOINT RightHandIndex3
											{
												OFFSET -3.01859 0.00000 0.00000
												CHANNELS 3 Zrotation Xrotation Yrotation
												End site
												{
													OFFSET 0.00000 0.00000 0.00000
												}
											}
										}
									}
									JOINT RightHandMiddle1
									{
										OFFSET -14.26970 0.00000 -0.09147
										CHANNELS 3 Zrotation Xrotation Yrotation
										JOINT RightHandMiddle2
										{
											OFFSET -6.17441 0.00000 0.00000
											CHANNELS 3 Zrotation Xrotation Yrotation
											JOINT RightHandMiddle3
											{
												OFFSET -3.56743 0.00000 0.00000
												CHANNELS 3 Zrotation Xrotation Yrotation
												End site
												{
													OFFSET 0.00000 0.00000 0.00000
												}
											}
										}
									}
									JOINT RightHandRing1
									{
										OFFSET -12.69180 0.00000 -3.06433
										CHANNELS 3 Zrotation Xrotation Yrotation
										JOINT RightHandRing2
										{
											OFFSET -5.62556 0.00000 0.00000
											CHANNELS 3 Zrotation Xrotation Yrotation
											JOINT RightHandRing3
											{
												OFFSET -3.56744 0.00000 0.00000
												CHANNELS 3 Zrotation Xrotation Yrotation
												End site
												{
													OFFSET 0.00000 0.00000 0.00000
												}
											}
										}
									}
									JOINT RightHandPinky1
									{
										OFFSET -11.11390 0.00000 -6.03719
										CHANNELS 3 Zrotation Xrotation Yrotation
										JOINT RightHandPinky2
										{
											OFFSET -4.52789 0.00000 0.00000
											CHANNELS 3 Zrotation Xrotation Yrotation
											JOINT RightHandPinky3
											{
												OFFSET -2.46976 0.00000 0.00000
												CHANNELS 3 Zrotation Xrotation Yrotation
												End site
												{
													OFFSET 0.00000 0.00000 0.00000
												}
											}
										}
									}
								}
							}
						}
					}
					JOINT LeftShoulder
					{
						OFFSET 0.01000 7.91373 5.19711
						CHANNELS 3 Zrotation Xrotation Yrotation
						JOINT LeftArm
						{
							OFFSET 18.41580 0.00000 0.00000
							CHANNELS 3 Zrotation Xrotation Yrotation
							JOINT LeftForeArm
							{
								OFFSET 29.11090 0.00000 0.00000
								CHANNELS 3 Zrotation Xrotation Yrotation
								JOINT LeftHand
								{
									OFFSET 24.65040 0.00000 0.00000
									CHANNELS 3 Zrotation Xrotation Yrotation
									JOINT LeftHandThumb1
									{
										OFFSET 5.35114 -0.85590 3.97906
										CHANNELS 3 Zrotation Xrotation Yrotation
										JOINT LeftHandThumb2
										{
											OFFSET 4.52789 0.00000 0.00000
											CHANNELS 3 Zrotation Xrotation Yrotation
											JOINT LeftHandThumb3
											{
												OFFSET 2.46977 0.00000 0.00000
												CHANNELS 3 Zrotation Xrotation Yrotation
												End site
												{
													OFFSET 0.00000 0.00000 0.00000
												}
											}
										}
									}
									JOINT LeftHandIndex1
									{
										OFFSET 14.26970 0.00000 2.88139
										CHANNELS 3 Zrotation Xrotation Yrotation
										JOINT LeftHandIndex2
										{
											OFFSET 5.48836 0.00000 0.00000
											CHANNELS 3 Zrotation Xrotation Yrotation
											JOINT LeftHandIndex3
											{
												OFFSET 3.01859 0.00000 0.00000
												CHANNELS 3 Zrotation Xrotation Yrotation
												End site
												{
													OFFSET 0.00000 0.00000 0.00000
												}
											}
										}
									}
									JOINT LeftHandMiddle1
									{
										OFFSET 14.26970 0.00000 -0.09147
										CHANNELS 3 Zrotation Xrotation Yrotation
										JOINT LeftHandMiddle2
										{
											OFFSET 6.17440 0.00000 0.00000
											CHANNELS 3 Zrotation Xrotation Yrotation
											JOINT LeftHandMiddle3
											{
												OFFSET 3.56744 0.00000 0.00000
												CHANNELS 3 Zrotation Xrotation Yrotation
												End site
												{
													OFFSET 0.00000 0.00000 0.00000
												}
											}
										}
									}
									JOINT LeftHandRing1
									{
										OFFSET 12.69180 0.00000 -3.06433
										CHANNELS 3 Zrotation Xrotation Yrotation
										JOINT LeftHandRing2
										{
											OFFSET 5.62556 0.00000 0.00000
											CHANNELS 3 Zrotation Xrotation Yrotation
											JOINT LeftHandRing3
											{
												OFFSET 3.56744 0.00000 0.00000
												CHANNELS 3 Zrotation Xrotation Yrotation
												End site
												{
													OFFSET 0.00000 0.00000 0.00000
												}
											}
										}
									}
									JOINT LeftHandPinky1
									{
										OFFSET 11.11390 0.00000 -6.03719
										CHANNELS 3 Zrotation Xrotation Yrotation
										JOINT LeftHandPinky2
										{
											OFFSET 4.52789 0.00000 0.00000
											CHANNELS 3 Zrotation Xrotation Yrotation
											JOINT LeftHandPinky3
											{
												OFFSET 2.46976 0.00000 0.00000
												CHANNELS 3 Zrotation Xrotation Yrotation
												End site
												{
													OFFSET 0.00000 0.00000 0.00000
												}
											}
										}
									}
								}
							}
						}
					}
					JOINT pCube4
					{
						OFFSET 0.00000 10.91090 1.10792
						CHANNELS 3 Zrotation Xrotation Yrotation
						End site
						{
							OFFSET 0.00000 0.00000 0.00000
						}
					}
				}
			}
		}
	}
	JOINT RightUpLeg
	{
		OFFSET -9.98441 0.00000 0.00000
		CHANNELS 3 Zrotation Xrotation Yrotation
		JOINT RightLeg
		{
			OFFSET 0.00000 -42.11790 0.00000
			CHANNELS 3 Zrotation Xrotation Yrotation
			JOINT RightFoot
			{
				OFFSET 0.00000 -45.00020 -0.00001
				CHANNELS 3 Zrotation Xrotation Yrotation
				JOINT RightForeFoot
				{
					OFFSET 0.00000 -3.74820 0.00000
					CHANNELS 3 Zrotation Xrotation Yrotation
					JOINT RightToeBase
					{
						OFFSET 0.00000 0.06325 14.43120
						CHANNELS 3 Zrotation Xrotation Yrotation
						End site
						{
							OFFSET 0.00000 0.00000 0.00000
						}
					}
				}
			}
		}
	}
	JOINT LeftUpLeg
	{
		OFFSET 9.98441 0.00000 0.00000
		CHANNELS 3 Zrotation Xrotation Yrotation
		JOINT LeftLeg
		{
			OFFSET 0.00000 -42.11800 0.00000
			CHANNELS 3 Zrotation Xrotation Yrotation
			JOINT LeftFoot
			{
				OFFSET 0.00000 -45.00070 0.00000
				CHANNELS 3 Zrotation Xrotation Yrotation
				JOINT LeftForeFoot
				{
					OFFSET 0.00000 -3.74824 0.00000
					CHANNELS 3 Zrotation Xrotation Yrotation
					JOINT LeftToeBase
					{
						OFFSET 0.00000 0.06325 14.43110
						CHANNELS 3 Zrotation Xrotation Yrotation
						End site
						{
							OFFSET 0.00000 0.00000 0.00000
						}
					}
				}
			}
		}
	}
}
MOTION
Frames: 4
Frame Time: 0.050000
-0.001278185970890828 0.042918880725660996 -0.04066808717382376 0.004468269928036285 -0.003911990997457006 -0.01577121462115139 -3.2621379211930472 -0.1550427244813412 -0.7750591815792146 -0.9967396850593913 3.703944226146991 0.4278328018866662 -1.353571604595736 -1.9493419754871713 -0.031402169012272184 -0.23440881346743128 0.34249544243328556 -0.6620510191174325 0.24815183856668158 12.285374706454823 -0.3127945511837837 0.07802647115612418 -1.2533270169472202 -2.9027821058756667 0.5017637178185885 -17.342345073952867 -0.30037704924152475 -5.253587901815929 1.9616310578195157 -14.637672603068657 71.86280648559591 30.91529328463711 11.265271817516364 1.3209518750826383 3.625771505979594 91.21835552158961 17.25927252605435 -0.6219228030802268 -4.296715785417685 4.560106422267886 -0.15163982457440264 -1.5970206205144124 0.004317212784476461 -0.01605994197897343 -56.201367441824644 0.004562926998876068 0.0006126005474882266 -56.23405930652348 -38.80852776634625 -0.005396888332241289 0.02438056536047428 0.041352197985807505 0.04162953871937395 -0.0156364636168863 -0.048849260628408636 0.002924870993347589 0.010296409893061083 -36.65467978885099 -0.029237371715235928 0.026497894608177183 -0.03495093512652402 0.0151803099750301 0.019142268578617925 -0.038728111331705735 0.004888226141215956 -0.044532448746690476 -19.76854823711476 -0.013628354912443642 0.01137247761286421 0.023481143271192002 -0.011537119069909516 0.008267474799043502 0.01622541072846434 0.01853042302876688 -0.023414725371371334 24.03685437355654 -0.022160134054975956 -0.04217636787205643 28.872077855963145 -0.006468568311544404 0.03893368486760572 28.851428715536677 0.04319332141071394 0.016938615788538718 4.883121207140767 1.1627683959306807 13.192838168321208 -74.03617928497765 30.62981839565846 -3.623184895571364 1.4132676234152792 -8.071684031939487 -40.610846056307366 -15.639132321357767 -2.355377687917163 5.4931226496730385 -0.5181663127061823 0.05682236305971536 -8.07988415454174 0.0007660841688731703 -0.04123512421166608 44.56295461039449 -0.03794805335130606 -0.032180463128345535 44.53130897740203 12.507476880406239 -0.024009467805388138 0.0406365769255407 -0.02648129791709542 0.0010654409298464101 0.03507273137307637 0.025038380991697518 0.014120765299515435 0.0030859946792581466 11.082410671505926 -0.03829200330764546 -0.012330350098103699 0.04373536055844233 -0.045343739469725655 0.030411167269574754 -0.031432170481814035 0.007431900265696777 0.04158430097520491 4.750777797879556 0.017105833191386456 -0.03656255856525686 0.01781005931515827 -0.008555370624034608 -0.02605478302628057 -0.00735296856724943 -0.0021217950248432864 0.031492934193612446 -5.619021892106846 -0.010025757644483756 0.04357051505711122 -6.716369782934095 -0.02939783116893693 0.0373191727797561 -6.683080442562295 0.022420508978610563 0.04647881200400181 0.0017612010785395095 -0.049233783993706405 0.014477002952131312 8.007655606152838 3.5399413705685343 -19.22083310751526 0.032784900944124465 10.411954039152706 -0.013477525209522119 -5.621128390237875 -15.666054622126262 3.2149558498846953 -0.002193445822674064 -0.006417386550368683 0.021691424860773738 -0.010471737925600395 4.6489573972432625 0.011637913732005461 12.473176654836626 -8.237583914831268 6.840795883319682 -0.012485777776486328 46.36460417257425 -0.007091699592711281 -4.316273502406856 -14.756929811920072 -3.806063332431527 0.021844677560088923 -0.03310082540995801 0.002447770434178539 -0.030352777757817768 -10.747597454477347 -0.015085018018926808 
-0.018475106124923764 -0.024935528552885517 0.010960870834889013 0.004415497038455451 -0.0019112573397454446 -0.030383497734138093 -3.1604394191308307 -0.22038854904366234 -0.8554965209735288 -1.0029269438307422 3.770388273727814 0.38329589381199536 -1.3218716689019245 -1.9719447965972723 -0.07644905942355631 -0.15073988634682772 0.34643530152941776 -0.6356946107847794 0.3581409314361112 12.124532868019413 -0.6931062651944737 0.11571499474093087 -1.2875708688349146 -3.821970558438155 0.6041765537851729 -17.335388931208207 -0.3847042542065894 -5.2963667896162985 1.9012097153142187 -14.616850683749249 70.78865789521183 31.395635441367972 11.827429777829812 1.9698802166923137 3.5482213114471963 91.36824978307735 16.586036933303276 -0.6097658675613946 -4.163484175235538 4.544149075372052 -0.10828607056009441 -1.6015444174006295 0.03085702086563466 0.013979521123426956 -56.25121006635549 0.009042409095590336 0.03708042349770238 -56.280929280161665 -38.78635182217126 -0.026206986247715253 -0.03981491778759536 -0.04576759820474276 0.03736515939979117 -0.011759117094065408 0.04486033782364436 0.0030339778038736063 -0.021063152587719774 -36.731623410881625 0.017165416306226613 -0.03317207655292796 0.00041059891832677105 -0.0030726654837172195 -0.03516334504179215 0.037565566600315355 -0.023801505713106543 -0.04153013192392016 -19.708743028857548 0.03164343669680683 0.015155147899571826 0.015231963891257047 -0.022042177718685413 -0.03618683244896193 -0.038517365632926535 -0.010423297449636533 0.03667573531095591 24.102647653585787 0.01576977815878268 -0.021074414364130507 28.82685469435459 0.03486185617825449 -0.035772501997413206 28.863991790503015 -0.003004866834867186 -0.03702662982024553 4.631573023114187 1.077308181255193 13.11032793198691 -73.8388463148349 31.009141829000484 -3.2849343154901005 0.5567823928023176 -7.703012912268629 -40.634159445909376 -15.613679365964076 -2.242467924790931 5.251802311298752 -0.4695848626864756 0.11234568276802111 -8.098505301133208 -0.041071173397174386 -0.0477724108043382 44.609907822545345 -0.0012242845612336955 -0.015190199853884347 44.54595895561988 12.48653413747423 -0.02079875015300394 -0.032414090302182515 -0.01025104981269759 -0.004753696025884993 0.037913496290638525 0.03412358492740609 0.007859659765073954 0.00934163346048216 11.104247333441458 -0.04569280534192419 0.0491682230887544 0.019832124056449425 -0.0214219944723633 0.013474482439001427 0.0047508402108874985 -0.004045409816551132 0.031126868600648946 4.773688673724192 -0.0016713656824489426 0.029094788805267568 -0.011038801233117089 -0.0021611740708104513 0.026899403900885077 0.023807818657891874 0.03789064402176154 -0.03804818158541604 -5.6264877372574675 0.012292456755806305 0.022919438720519755 -6.72217105170506 0.03411231976458035 0.03903083198915895 -6.721204543249245 0.014326768095941494 0.019859534546291115 0.007035678809241065 -0.03837134229336281 0.018717670994941163 8.019534151897306 3.4786027967817588 -19.173929639661967 0.035973341722908454 10.403144434250514 0.024598092638143117 -5.633012640227498 -15.674029932729518 3.1904376124289513 0.013487579607129015 0.02643802198585168 -0.02507021440423267 -0.0090786228729906 4.6588956592460296 0.00040674213259707186 12.449627374593321 -8.285357203589784 6.885187769658165 -0.025271368816066772 46.35896805686273 0.023812004350732243 -4.364555352351505 -14.70511702184165 -3.826097143165762 0.04633382729387646 -0.023308021575967362 0.03850410765188721 0.021403250756317438 -10.703194387863684 -0.02058123402532447 
-0.0008113682449560829 0.04807016817422457 0.026228308211954477 0.027716470728240107 0.042151559891827034 -0.01953966378566631 -3.0330166513143038 -0.24014494498824307 -0.864750703702143 -0.9541418166802934 3.7524711983584687 0.39961886841923183 -1.3571799965076456 -1.9565359589909113 0.08641784102322797 -0.04046232050082324 0.34169447443792217 -0.6234538320196169 0.47111735584354203 11.95017335115404 -1.0215234738913652 0.11166420024982089 -1.2681036620570496 -4.78285493932052 0.6978407081430155 -17.377065571867607 -0.39924221359000095 -5.328088483361018 1.9076445479479773 -14.489165141607565 69.81794660590046 32.077150578641316 12.458499942544929 2.2243797606646325 3.2821956194246416 90.60963948438295 16.102418450940196 -0.6136494719597843 -3.969047939710556 4.486527225029521 -0.11981050018417701 -1.5764761524387798 0.01549237803988699 0.018557581717653728 -56.26417975426118 0.04991333637333541 -0.02267513147505626 -56.22394286528816 -38.80982556488067 0.04568898700601724 0.0482134586526537 -0.03255648377476824 0.012910257671242651 0.03762485100711514 -0.01064429905667459 -0.01583097063581764 0.03443847555145663 -36.713316940076204 -0.04200071808666075 -0.0009764237019226754 -0.030670850895127815 -0.011408746842439216 -0.035499605058765336 -0.04879513888210344 -0.004472752095068859 0.011633579655312436 -19.758859579434734 0.007218912699974646 0.002450297570545893 -0.01392627438438753 -0.008852621638382647 -0.02075295722258193 0.03916220029668756 -0.04372769073979574 -0.021322826351307434 24.092128160974806 -0.044257423907676986 0.02858965286816559 28.858209036349088 0.007560998030889446 0.03700601867075174 28.873353026572197 0.018140639207881844 0.028418588600837943 4.384759853443516 1.0295384869470965 13.016989548369585 -73.51786102697126 31.343114892696843 -2.7377323033954424 0.3316256771923475 -7.604022020596744 -40.72952724185046 -15.357999480585317 -1.9711698087559741 4.910658785266058 -0.5076327979133289 0.08789778369427977 -8.14569769590049 0.04206494965744518 -0.012036792997740707 44.563798421383694 -0.019908973165360572 0.014637802615096535 44.582969619464464 12.509119436839049 -0.021892435344735093 -0.020652374719777766 -0.028088977780542236 -0.011788966506565744 0.02273233172500019 0.013777612519948128 -0.03780042391291504 0.03296606137416787 11.106684563967061 0.005942617501287136 -0.011610830226694515 0.018666431265669102 0.008099084474550676 -0.0036792396339149786 0.019102986906912995 -0.028171096199194924 -0.001545245903552179 4.762369614286767 0.009448674285256932 -0.04201253169816997 0.006591506077141673 0.030008143050609927 0.009277612991854062 0.0015406441483680876 -0.021263247193494844 0.02674492739179609 -5.621577386845385 0.025980505759733468 0.01222963699044575 -6.7062336095889865 -0.016906071464941955 -0.03437741248771202 -6.716915534540982 0.02764856803545154 0.004290785482897657 -0.015259808127031925 0.005428655087657421 -0.042413500661173345 8.037029224802037 3.542051796461759 -19.237850914151768 -0.03300021681262745 10.41932847987436 0.01556244435965011 -5.6631588343661114 -15.684699235138066 3.2035336323823116 -0.005685603647521235 0.030080543112790604 0.012344875191409834 -0.005815227388249922 4.654535027403665 -0.04938483026215368 12.43793735454536 -8.211249585638937 6.875742737653558 0.03787849277514003 46.39319924553306 -0.008109916280996905 -4.317566110058677 -14.752522440583844 -3.8487886800487408 -0.030320614304511318 0.03632244260738266 -0.03867312531222384 -0.04412247246894711 -10.793254659317313 -0.0026362867138166298 
-0.04543372070068295 0.03656391295909744 -0.03313501719166183 -0.002617160998918439 0.013897725522202312 0.02345030740677403 -2.795112942519031 -0.3255542236297194 -0.8645876510111479 -1.0039203752796333 3.7231928674565347 0.45169247396475576 -1.3616626691705491 -1.8842800096306225 0.24483849649343542 0.025561914833762626 0.3357019047404812 -0.5825094462784792 0.6429743030920859 11.892932418064188 -1.3811187029575593 0.0992763660072408 -1.2585517361345808 -5.660099609735038 0.7826528225379116 -17.30681522270419 -0.5154461834631839 -5.462610837108796 1.9144253222412735 -14.433121830738973 69.09852560585269 32.98975205035727 13.69544359792533 2.045023501000338 2.8642970255712097 90.57342877458927 15.812372979487485 -0.60927879907855 -3.7986841841653187 4.498079437022162 -0.1369657788908473 -1.571840068784146 -0.02525526687251036 -0.036449329191839706 -56.22802784442976 0.03105634057852851 0.031124147283155143 -56.21671033285334 -38.77762192335959 0.03625075290550927 0.04308881770009689 -0.009044842323309269 0.020819534924450666 0.02250884867093516 0.04149161772742976 0.021528948906387665 0.044634210759484226 -36.723020226219575 -0.019248209620527968 0.02160195555146731 0.048729743373207506 0.04369910643704324 0.0049380978023041144 0.01572398008611502 0.03228991152463517 -0.010948594574102103 -19.778445687376763 -0.02199030100620772 -0.007476463531724897 -0.02707710250127389 -0.017415218022780076 0.036082780838009094 -0.04335017973342119 -0.031491908265237616 0.020475254001433636 24.05993556029858 0.013389571135253985 -0.018261076824906994 28.866350074454683 0.04996601624110233 -0.032966222883356246 28.820848059541234 0.028211534448807352 -0.005721757606426074 4.165261012008004 0.9911427376826872 12.973704968635557 -73.43525291153676 31.420721387498652 -2.4365912488893775 0.592586779275944 -8.004419401463073 -41.00427042927851 -15.160751593716316 -1.8105903429910293 4.678252809911546 -0.4921888637630071 0.03803442878062377 -8.140872450273104 -0.018644706933969725 -0.02043173379373639 44.52801805726482 -0.0077718781785441745 -0.015829096285033293 44.6015881942933 12.471181725005977 0.043180860305745555 0.03208811915121513 0.013174358012148578 -0.023064247769476787 0.03134944326661171 0.009767968177077022 -0.03454943206223446 0.011970442463828822 11.096723547214756 -0.03223243871010918 -0.014292820457260703 0.046583683406515496 0.048452422466569 -0.0024346158964287344 0.008272678049803072 -1.7469221807884456e-05 -0.029228649892901876 4.734104958667582 -0.012399503223638282 0.044728553141206814 -0.020452353371899486 -0.019300762031622093 -0.023013609406351398 0.02367691513399579 0.01369518828503777 -0.003388129811020668 -5.645831352427145 0.020398007700552126 0.039434996361278264 -6.709726278938212 0.003172047091933254 0.026596943310287082 -6.695865604791623 -0.0215814622800108 0.009969298200416981 0.043631838740670094 0.013335305860370726 -0.016925294609753824 8.009649166893869 3.4778865021549663 -19.238709002955737 -0.04984605627995796 10.40770880373009 0.044481947122267926 -5.651533482101899 -15.68931418908855 3.1472072166944107 0.016458406327459214 -0.0006392295384064993 0.00011847932668861888 -0.005941343587220181 4.692093717347642 -0.023280958461075935 12.46217066648306 -8.21240052497044 6.857345104907469 0.019944549324760398 46.411853688240406 -0.0021803451259747248 -4.367219618712499 -14.793572934471133 -3.788009209815367 0.013536969882277294 -0.005933648391397809 0.009466056532084422 -0.03197679056655872 -10.714464777569782 -0.038614556678392226 
